<?xml version="1.0" encoding="UTF-8" standalone="no"?>
<svg
   viewBox="0 0 250 250"
   width="250"
   height="250">
  
    <path
       transform="matrix(5.2276569,0,0,5.2276569,-5586.8085,-3394.2653)"
       class="cls-3"
       d="m 1092.5,649.29 a 23.8,23.8 0 0 0 -7.52,46.38 c 1.19,0.22 1.62,-0.52 1.62,-1.14 0,-0.62 0,-2.45 0,-4.43 -6.62,1.43 -8,-2.81 -8,-2.81 -1.08,-2.75 -2.64,-3.49 -2.64,-3.49 -2.16,-1.47 0.16,-1.44 0.16,-1.44 a 5,5 0 0 1 3.65,2.45 c 2.12,3.64 5.57,2.59 6.93,2 a 5,5 0 0 1 1.51,-3.18 c -5.29,-0.6 -10.85,-2.65 -10.85,-11.77 a 9.17,9.17 0 0 1 2.46,-6.38 8.5,8.5 0 0 1 0.23,-6.3 c 0,0 2,-0.64 6.54,2.44 a 22.6,22.6 0 0 1 11.92,0 c 4.55,-3.08 6.54,-2.44 6.54,-2.44 a 8.5,8.5 0 0 1 0.23,6.3 9.16,9.16 0 0 1 2.45,6.38 c 0,9.15 -5.56,11.16 -10.86,11.75 a 5.7,5.7 0 0 1 1.61,4.41 c 0,3.18 0,5.74 0,6.53 0,0.63 0.43,1.37 1.64,1.14 a 23.8,23.8 0 0 0 -7.54,-46.38 z"
       id="path21"
       style="fill:#000000;fill-opacity:1" />
</svg>
