<?xml version="1.0" encoding="UTF-8" standalone="no"?>
<svg
   viewBox="0 0 250 250"
   width="250"
   height="250">
  

    <g
       transform="matrix(5.2276569,0,0,5.2276569,-3939.1963,-3939.51)"
       id="Linkedin-2"
       data-name="Linkedin"
       style="fill:#000000;fill-opacity:1">
      <path
         class="cls-2"
         d="m 754.31,769.36 h 9.87 v 31.74 h -9.87 z m 4.94,-15.77 a 5.72,5.72 0 1 1 -5.72,5.72 5.72,5.72 0 0 1 5.72,-5.72"
         id="path15"/>
      <path
         class="cls-2"
         d="m 770.37,769.36 h 9.45 v 4.34 H 780 a 10.36,10.36 0 0 1 9.33,-5.12 c 10,0 11.83,6.57 11.83,15.11 v 17.41 h -9.86 v -15.43 c 0,-3.68 -0.06,-8.42 -5.12,-8.42 -5.06,0 -5.92,4 -5.92,8.15 v 15.7 h -9.85 z"
         id="path16" />
    </g>
</svg>
